<?xml version="1.0" encoding="utf-8"?>
<svg viewBox="0 0 300 150" xmlns="http://www.w3.org/2000/svg" xmlns:bx="https://boxy-svg.com">
  <circle style="stroke-width: 7px; stroke: rgb(128, 128, 128); fill: rgb(255, 255, 255);" cx="51.405" cy="31.567" r="12.754"/>
  <circle style="stroke-width: 7px; stroke: rgb(128, 128, 128); fill: rgb(255, 255, 255);" cx="127.081" cy="71.567" r="12.754"/>
  <circle style="stroke-width: 7px; stroke: rgb(128, 128, 128); fill: rgb(255, 255, 255);" cx="89.787" cy="121.567" r="12.754"/>
  <g transform="matrix(1, 0, 0, 1, -2.638209, -12.244621)">
    <circle style="stroke-width: 7px; stroke: rgb(128, 128, 128); fill: rgb(255, 255, 255);" cx="208.239" cy="82.23" r="12.754"/>
    <rect x="202.844" y="76.452" width="3.615" height="11.555" style="fill: rgb(128, 128, 128);"/>
    <rect x="209.593" y="76.452" width="3.615" height="11.555" style="fill: rgb(128, 128, 128);"/>
  </g>
  <path d="M 85.443 6.65 H 103.779 L 103.779 4.748 L 110.89 8.2965 L 103.779 11.845 L 103.779 9.943 H 85.443 V 6.65 Z" style="fill: rgb(128, 128, 128);" transform="matrix(0, 1, -1, 0, 213.860413, -56.615322)" bx:shape="arrow 85.443 4.748 25.447 7.097 3.293 7.111 0 1@02f072c0"/>
  <rect x="66.144" y="26.979" width="141.067" height="3.883" style="fill: rgb(128, 128, 128);"/>
  <rect x="104.657" y="119.42" width="103.416" height="4.091" style="fill: rgb(128, 128, 128);"/>
  <path d="M 85.443 6.65 H 112.422 L 112.422 4.748 L 119.533 8.297 L 112.422 11.845 L 112.422 9.943 H 85.443 V 6.65 Z" style="fill: rgb(128, 128, 128);" transform="matrix(0, -1, 1, 0.000854, 198.089233, 205.564392)" bx:shape="arrow 85.443 4.748 34.09 7.097 3.293 7.111 0 1@819e327b"/>
  <path d="M 85.443 6.65 H 125.059 L 125.059 4.748 L 132.17 8.296 L 125.059 11.845 L 125.059 9.943 H 85.443 V 6.65 Z" style="fill: rgb(128, 128, 128);" transform="matrix(1, 0, -0.000854, 1, 57.502071, 63.296169)" bx:shape="arrow 85.443 4.748 46.727 7.097 3.293 7.111 0 1@19ca3ea6"/>
  <path d="M 61.313 82.359 L 68.177 94.249 L 54.448 94.249 L 61.313 82.359 Z" style="fill: rgb(128, 128, 128);" transform="matrix(0.850809, -0.525476, 0.525476, 0.850809, -48.242184, -12.348661)" bx:shape="triangle 54.448 82.359 13.729 11.89 0.5 0 1@2e4c6988"/>
  <path d="M 61.313 82.359 L 68.177 94.249 L 54.448 94.249 L 61.313 82.359 Z" style="fill: rgb(128, 128, 128);" transform="matrix(0.850809, -0.525476, 0.525476, 0.850809, -10.327696, 77.006279)" bx:shape="triangle 54.448 82.359 13.729 11.89 0.5 0 1@2e4c6988"/>
  <path d="M 61.313 82.359 L 68.177 94.249 L 54.448 94.249 L 61.313 82.359 Z" style="fill: rgb(128, 128, 128);" transform="matrix(0.850809, -0.525476, 0.525476, 0.850809, 27.04772, 27.03076)" bx:shape="triangle 54.448 82.359 13.729 11.89 0.5 0 1@2e4c6988"/>
</svg>